<svg width="210" height="76" viewBox="0 0 210 76" fill="none" xmlns="http://www.w3.org/2000/svg">
<rect width="209.797" height="75.9609" rx="12.2984" fill="#E0E4EA"/>
<path d="M17.0964 21.8516C17.0193 21.8516 16.9537 21.8284 16.8996 21.7821C16.8456 21.7281 16.8186 21.6586 16.8186 21.5738V14.0384C16.8186 13.9536 16.8456 13.8841 16.8996 13.8301C16.9537 13.7761 17.0193 13.7491 17.0964 13.7491H23.1617C23.2466 13.7491 23.3161 13.7761 23.3701 13.8301C23.4241 13.8841 23.4511 13.9536 23.4511 14.0384V21.5738C23.4511 21.6509 23.4241 21.7165 23.3701 21.7705C23.3161 21.8246 23.2466 21.8516 23.1617 21.8516H22.12C22.0428 21.8516 21.9772 21.8246 21.9232 21.7705C21.8692 21.7165 21.8422 21.6509 21.8422 21.5738V15.1959H18.4275V21.5738C18.4275 21.6509 18.4005 21.7165 18.3465 21.7705C18.3002 21.8246 18.2346 21.8516 18.1497 21.8516H17.0964ZM27.7745 21.9673C27.1572 21.9673 26.6363 21.8593 26.2119 21.6432C25.7952 21.4271 25.475 21.1223 25.2512 20.7288C25.0351 20.3352 24.9117 19.8761 24.8808 19.3514C24.8731 19.2125 24.8692 19.0427 24.8692 18.8421C24.8692 18.6414 24.8731 18.4717 24.8808 18.3328C24.9117 17.8003 25.039 17.3412 25.2628 16.9553C25.4943 16.5618 25.8184 16.257 26.2351 16.0409C26.6595 15.8248 27.1726 15.7168 27.7745 15.7168C28.3764 15.7168 28.8857 15.8248 29.3024 16.0409C29.7269 16.257 30.051 16.5618 30.2747 16.9553C30.5062 17.3412 30.6374 17.8003 30.6683 18.3328C30.676 18.4717 30.6799 18.6414 30.6799 18.8421C30.6799 19.0427 30.676 19.2125 30.6683 19.3514C30.6374 19.8761 30.5101 20.3352 30.2863 20.7288C30.0702 21.1223 29.75 21.4271 29.3256 21.6432C28.9089 21.8593 28.3919 21.9673 27.7745 21.9673ZM27.7745 20.8214C28.1835 20.8214 28.4999 20.6941 28.7237 20.4394C28.9475 20.177 29.0709 19.7951 29.0941 19.2935C29.1018 19.1777 29.1057 19.0273 29.1057 18.8421C29.1057 18.6569 29.1018 18.5064 29.0941 18.3906C29.0709 17.8968 28.9475 17.5187 28.7237 17.2563C28.4999 16.9939 28.1835 16.8627 27.7745 16.8627C27.3656 16.8627 27.0492 16.9939 26.8254 17.2563C26.6016 17.5187 26.4781 17.8968 26.455 18.3906C26.4473 18.5064 26.4434 18.6569 26.4434 18.8421C26.4434 19.0273 26.4473 19.1777 26.455 19.2935C26.4781 19.7951 26.6016 20.177 26.8254 20.4394C27.0492 20.6941 27.3656 20.8214 27.7745 20.8214ZM35.7705 21.8516C35.6933 21.8516 35.6278 21.8246 35.5737 21.7705C35.5197 21.7165 35.4927 21.6509 35.4927 21.5738V19.606C35.2998 19.7758 35.0606 19.9031 34.7751 19.988C34.4973 20.0652 34.1809 20.1037 33.8259 20.1037C33.1237 20.1037 32.5797 19.9378 32.1938 19.606C31.8157 19.2665 31.6267 18.7225 31.6267 17.9739V16.1104C31.6267 16.0332 31.6498 15.9676 31.6961 15.9136C31.7501 15.8596 31.8196 15.8326 31.9045 15.8326H32.8999C32.9771 15.8326 33.0427 15.8596 33.0967 15.9136C33.1507 15.9676 33.1777 16.0332 33.1777 16.1104V17.8929C33.1777 18.2016 33.2587 18.4254 33.4208 18.5643C33.5906 18.6954 33.8606 18.761 34.231 18.761C34.6092 18.761 34.914 18.7109 35.1455 18.6106C35.377 18.5102 35.4927 18.3328 35.4927 18.0781V16.1104C35.4927 16.0332 35.5197 15.9676 35.5737 15.9136C35.6278 15.8596 35.6933 15.8326 35.7705 15.8326H36.8123C36.8894 15.8326 36.955 15.8596 37.009 15.9136C37.0631 15.9676 37.0901 16.0332 37.0901 16.1104V21.5738C37.0901 21.6509 37.0631 21.7165 37.009 21.7705C36.955 21.8246 36.8894 21.8516 36.8123 21.8516H35.7705ZM38.9204 21.8516C38.8509 21.8516 38.7892 21.8246 38.7352 21.7705C38.6811 21.7165 38.6541 21.6548 38.6541 21.5853V16.1104C38.6541 16.0332 38.6811 15.9676 38.7352 15.9136C38.7892 15.8596 38.8548 15.8326 38.9319 15.8326H39.8927C39.9775 15.8326 40.0431 15.8596 40.0894 15.9136C40.1434 15.9676 40.1705 16.0332 40.1705 16.1104V20.6825L39.7653 20.3931L42.9485 16.0178C42.987 15.9637 43.0295 15.9213 43.0758 15.8904C43.1221 15.8519 43.1838 15.8326 43.261 15.8326H44.1407C44.2101 15.8326 44.2719 15.8596 44.3259 15.9136C44.3799 15.9599 44.4069 16.0178 44.4069 16.0872V21.5738C44.4069 21.6509 44.3799 21.7165 44.3259 21.7705C44.2719 21.8246 44.2063 21.8516 44.1291 21.8516H43.1684C43.0835 21.8516 43.014 21.8246 42.96 21.7705C42.9137 21.7165 42.8906 21.6509 42.8906 21.5738V17.21L43.3189 17.2679L40.1126 21.6664C40.0817 21.7127 40.0393 21.7551 39.9853 21.7937C39.939 21.8323 39.8772 21.8516 39.8001 21.8516H38.9204ZM46.1437 21.8516C46.0665 21.8516 46.0009 21.8246 45.9469 21.7705C45.8929 21.7165 45.8659 21.6509 45.8659 21.5738V16.1104C45.8659 16.0332 45.8929 15.9676 45.9469 15.9136C46.0009 15.8596 46.0665 15.8326 46.1437 15.8326H47.1044C47.1893 15.8326 47.2549 15.8596 47.3012 15.9136C47.3552 15.9676 47.3822 16.0332 47.3822 16.1104V18.1823H49.9982V16.1104C49.9982 16.0332 50.0252 15.9676 50.0792 15.9136C50.1332 15.8596 50.1988 15.8326 50.276 15.8326H51.2367C51.3139 15.8326 51.3795 15.8596 51.4335 15.9136C51.4875 15.9676 51.5145 16.0332 51.5145 16.1104V21.5738C51.5145 21.6509 51.4875 21.7165 51.4335 21.7705C51.3795 21.8246 51.3139 21.8516 51.2367 21.8516H50.276C50.1988 21.8516 50.1332 21.8246 50.0792 21.7705C50.0252 21.7165 49.9982 21.6509 49.9982 21.5738V19.3977H47.3822V21.5738C47.3822 21.6509 47.3552 21.7165 47.3012 21.7705C47.2549 21.8246 47.1893 21.8516 47.1044 21.8516H46.1437ZM53.3439 21.8516C53.2744 21.8516 53.2127 21.8246 53.1587 21.7705C53.1047 21.7165 53.0777 21.6548 53.0777 21.5853V16.1104C53.0777 16.0332 53.1047 15.9676 53.1587 15.9136C53.2127 15.8596 53.2783 15.8326 53.3555 15.8326H54.3162C54.4011 15.8326 54.4667 15.8596 54.513 15.9136C54.567 15.9676 54.594 16.0332 54.594 16.1104V20.6825L54.1889 20.3931L57.372 16.0178C57.4106 15.9637 57.453 15.9213 57.4993 15.8904C57.5456 15.8519 57.6073 15.8326 57.6845 15.8326H58.5642C58.6337 15.8326 58.6954 15.8596 58.7494 15.9136C58.8034 15.9599 58.8304 16.0178 58.8304 16.0872V21.5738C58.8304 21.6509 58.8034 21.7165 58.7494 21.7705C58.6954 21.8246 58.6298 21.8516 58.5526 21.8516H57.5919C57.507 21.8516 57.4376 21.8246 57.3836 21.7705C57.3373 21.7165 57.3141 21.6509 57.3141 21.5738V17.21L57.7424 17.2679L54.5361 21.6664C54.5053 21.7127 54.4628 21.7551 54.4088 21.7937C54.3625 21.8323 54.3008 21.8516 54.2236 21.8516H53.3439ZM62.1299 21.8516C62.045 21.8516 61.9755 21.8246 61.9215 21.7705C61.8752 21.7165 61.8521 21.6509 61.8521 21.5738V17.0595H59.9653C59.8804 17.0595 59.811 17.0325 59.757 16.9785C59.7107 16.9245 59.6875 16.8589 59.6875 16.7817V16.1104C59.6875 16.0332 59.7107 15.9676 59.757 15.9136C59.811 15.8596 59.8804 15.8326 59.9653 15.8326H65.2204C65.3053 15.8326 65.3747 15.8596 65.4287 15.9136C65.4827 15.9676 65.5098 16.0332 65.5098 16.1104V16.7817C65.5098 16.8589 65.4827 16.9245 65.4287 16.9785C65.3747 17.0325 65.3053 17.0595 65.2204 17.0595H63.3452V21.5738C63.3452 21.6509 63.3182 21.7165 63.2642 21.7705C63.2102 21.8246 63.1446 21.8516 63.0674 21.8516H62.1299ZM66.7051 21.8516C66.628 21.8516 66.5624 21.8246 66.5084 21.7705C66.4544 21.7165 66.4273 21.6509 66.4273 21.5738V16.1104C66.4273 16.0332 66.4544 15.9676 66.5084 15.9136C66.5624 15.8596 66.628 15.8326 66.7051 15.8326H67.6774C67.7546 15.8326 67.8202 15.8596 67.8742 15.9136C67.9282 15.9676 67.9552 16.0332 67.9552 16.1104V17.7424H69.1475C69.9346 17.7424 70.5249 17.9276 70.9184 18.298C71.312 18.6684 71.5088 19.1777 71.5088 19.8259C71.5088 20.4973 71.2966 21.0027 70.8721 21.3423C70.4477 21.6818 69.842 21.8516 69.0549 21.8516H66.7051ZM67.9321 20.7519H69.0201C69.3983 20.7519 69.6761 20.6825 69.8535 20.5436C70.0387 20.4047 70.1313 20.1655 70.1313 19.8259C70.1313 19.4941 70.0426 19.2472 69.8651 19.0851C69.6954 18.9231 69.4137 18.8421 69.0201 18.8421H67.9321V20.7519ZM75.4881 21.8516C75.411 21.8516 75.3454 21.8246 75.2914 21.7705C75.2373 21.7165 75.2103 21.6509 75.2103 21.5738V16.1104C75.2103 16.0332 75.2373 15.9676 75.2914 15.9136C75.3454 15.8596 75.411 15.8326 75.4881 15.8326H76.4373C76.5144 15.8326 76.58 15.8596 76.6341 15.9136C76.6881 15.9676 76.7151 16.0332 76.7151 16.1104V18.1823H77.5485L78.9606 16.0178C78.9915 15.9637 79.0301 15.9213 79.0764 15.8904C79.1304 15.8519 79.1998 15.8326 79.2847 15.8326H80.3149C80.3921 15.8326 80.4538 15.8519 80.5001 15.8904C80.5464 15.929 80.5696 15.9792 80.5696 16.0409C80.5696 16.0641 80.5618 16.0911 80.5464 16.1219C80.5387 16.1451 80.5271 16.1682 80.5117 16.1914L78.8449 18.7263L80.7548 21.4927C80.7933 21.539 80.8126 21.5892 80.8126 21.6432C80.8126 21.7049 80.7895 21.7551 80.7432 21.7937C80.6969 21.8323 80.639 21.8516 80.5696 21.8516H79.4005C79.3233 21.8516 79.2577 21.8361 79.2037 21.8053C79.1574 21.7744 79.115 21.732 79.0764 21.6779L77.5485 19.4092H76.7151V21.5738C76.7151 21.6509 76.6881 21.7165 76.6341 21.7705C76.58 21.8246 76.5144 21.8516 76.4373 21.8516H75.4881ZM82.1124 24.0508C82.0352 24.0508 81.9696 24.0238 81.9156 23.9698C81.8616 23.9158 81.8346 23.8502 81.8346 23.773V16.1104C81.8346 16.0332 81.8616 15.9676 81.9156 15.9136C81.9696 15.8596 82.0352 15.8326 82.1124 15.8326H83.0268C83.1117 15.8326 83.1773 15.8596 83.2236 15.9136C83.2776 15.9676 83.3046 16.0332 83.3046 16.1104V16.5734C83.4898 16.3264 83.7329 16.1219 84.0338 15.9599C84.3348 15.7978 84.709 15.7168 85.1566 15.7168C85.5656 15.7168 85.9206 15.7824 86.2215 15.9136C86.5225 16.0448 86.7732 16.2338 86.9739 16.4808C87.1745 16.72 87.3288 17.0055 87.4369 17.3373C87.5449 17.6691 87.6066 18.0357 87.6221 18.4369C87.6298 18.5681 87.6337 18.7032 87.6337 18.8421C87.6337 18.981 87.6298 19.1199 87.6221 19.2588C87.6144 19.6446 87.5565 20.0034 87.4485 20.3352C87.3404 20.6593 87.1822 20.9449 86.9739 21.1918C86.7732 21.431 86.5225 21.6201 86.2215 21.759C85.9206 21.8979 85.5656 21.9673 85.1566 21.9673C84.7399 21.9673 84.3849 21.894 84.0917 21.7474C83.7985 21.5931 83.5593 21.3924 83.3741 21.1455V23.773C83.3741 23.8502 83.347 23.9158 83.293 23.9698C83.2467 24.0238 83.1811 24.0508 83.0963 24.0508H82.1124ZM84.7283 20.7288C85.0601 20.7288 85.3187 20.6593 85.5039 20.5204C85.6891 20.3738 85.8202 20.1848 85.8974 19.9533C85.9823 19.7218 86.0324 19.4671 86.0479 19.1893C86.0633 18.9578 86.0633 18.7263 86.0479 18.4948C86.0324 18.217 85.9823 17.9624 85.8974 17.7309C85.8202 17.4994 85.6891 17.3142 85.5039 17.1753C85.3187 17.0286 85.0601 16.9553 84.7283 16.9553C84.4119 16.9553 84.1534 17.0286 83.9528 17.1753C83.7599 17.3219 83.6171 17.5109 83.5245 17.7424C83.4396 17.9662 83.3895 18.1977 83.3741 18.4369C83.3663 18.5758 83.3625 18.7225 83.3625 18.8768C83.3625 19.0311 83.3663 19.1816 83.3741 19.3282C83.3818 19.5597 83.4358 19.7835 83.5361 19.9996C83.6364 20.2079 83.783 20.3815 83.976 20.5204C84.1689 20.6593 84.4197 20.7288 84.7283 20.7288ZM90.6809 21.9673C90.2796 21.9673 89.9169 21.8901 89.5928 21.7358C89.2687 21.5738 89.0102 21.3616 88.8173 21.0992C88.6321 20.8291 88.5395 20.5282 88.5395 20.1963C88.5395 19.6562 88.7555 19.2279 89.1877 18.9115C89.6275 18.5874 90.2063 18.3713 90.9239 18.2633L92.5097 18.0318V17.7887C92.5097 17.4646 92.4287 17.2138 92.2666 17.0364C92.1046 16.8589 91.8268 16.7701 91.4332 16.7701C91.1554 16.7701 90.9278 16.828 90.7503 16.9438C90.5805 17.0518 90.4532 17.1984 90.3683 17.3836C90.3066 17.4839 90.2179 17.5341 90.1021 17.5341H89.1877C89.1028 17.5341 89.0372 17.5109 88.9909 17.4646C88.9523 17.4183 88.933 17.3566 88.933 17.2794C88.9407 17.156 88.9909 17.0055 89.0835 16.828C89.1761 16.6505 89.3227 16.4808 89.5234 16.3187C89.724 16.1489 89.9825 16.0062 90.2989 15.8904C90.6153 15.7747 90.9972 15.7168 91.4448 15.7168C91.931 15.7168 92.3399 15.7785 92.6718 15.902C93.0113 16.0178 93.2814 16.176 93.482 16.3766C93.6826 16.5772 93.8293 16.8126 93.9219 17.0827C94.0145 17.3527 94.0608 17.6383 94.0608 17.9392V21.5738C94.0608 21.6509 94.0337 21.7165 93.9797 21.7705C93.9257 21.8246 93.8601 21.8516 93.783 21.8516H92.8454C92.7605 21.8516 92.691 21.8246 92.637 21.7705C92.5907 21.7165 92.5676 21.6509 92.5676 21.5738V21.1223C92.4673 21.269 92.3322 21.4079 92.1625 21.539C91.9927 21.6625 91.7843 21.7667 91.5374 21.8516C91.2982 21.9287 91.0127 21.9673 90.6809 21.9673ZM91.0744 20.8677C91.3445 20.8677 91.5876 20.8098 91.8036 20.6941C92.0274 20.5783 92.201 20.4008 92.3245 20.1616C92.4557 19.9147 92.5213 19.606 92.5213 19.2356V18.9925L91.3638 19.1777C90.9085 19.2472 90.569 19.3591 90.3452 19.5134C90.1214 19.6677 90.0095 19.8568 90.0095 20.0806C90.0095 20.2504 90.0597 20.397 90.16 20.5204C90.268 20.6362 90.4031 20.7249 90.5651 20.7867C90.7272 20.8407 90.8969 20.8677 91.0744 20.8677ZM95.8235 21.8516C95.7463 21.8516 95.6807 21.8246 95.6267 21.7705C95.5727 21.7165 95.5457 21.6509 95.5457 21.5738V16.1104C95.5457 16.0332 95.5727 15.9676 95.6267 15.9136C95.6807 15.8596 95.7463 15.8326 95.8235 15.8326H96.7842C96.8691 15.8326 96.9347 15.8596 96.981 15.9136C97.035 15.9676 97.062 16.0332 97.062 16.1104V18.1823H99.678V16.1104C99.678 16.0332 99.705 15.9676 99.759 15.9136C99.813 15.8596 99.8786 15.8326 99.9558 15.8326H100.917C100.994 15.8326 101.059 15.8596 101.113 15.9136C101.167 15.9676 101.194 16.0332 101.194 16.1104V21.5738C101.194 21.6509 101.167 21.7165 101.113 21.7705C101.059 21.8246 100.994 21.8516 100.917 21.8516H99.9558C99.8786 21.8516 99.813 21.8246 99.759 21.7705C99.705 21.7165 99.678 21.6509 99.678 21.5738V19.3977H97.062V21.5738C97.062 21.6509 97.035 21.7165 96.981 21.7705C96.9347 21.8246 96.8691 21.8516 96.7842 21.8516H95.8235ZM103.035 21.8516C102.958 21.8516 102.893 21.8246 102.838 21.7705C102.784 21.7165 102.757 21.6509 102.757 21.5738V16.1104C102.757 16.0332 102.784 15.9676 102.838 15.9136C102.893 15.8596 102.958 15.8326 103.035 15.8326H103.996C104.081 15.8326 104.146 15.8596 104.193 15.9136C104.247 15.9676 104.274 16.0332 104.274 16.1104V18.1823H106.89V16.1104C106.89 16.0332 106.917 15.9676 106.971 15.9136C107.025 15.8596 107.09 15.8326 107.168 15.8326H108.128C108.205 15.8326 108.271 15.8596 108.325 15.9136C108.379 15.9676 108.406 16.0332 108.406 16.1104V21.5738C108.406 21.6509 108.379 21.7165 108.325 21.7705C108.271 21.8246 108.205 21.8516 108.128 21.8516H107.168C107.09 21.8516 107.025 21.8246 106.971 21.7705C106.917 21.7165 106.89 21.6509 106.89 21.5738V19.3977H104.274V21.5738C104.274 21.6509 104.247 21.7165 104.193 21.7705C104.146 21.8246 104.081 21.8516 103.996 21.8516H103.035ZM110.235 21.8516C110.166 21.8516 110.104 21.8246 110.05 21.7705C109.996 21.7165 109.969 21.6548 109.969 21.5853V16.1104C109.969 16.0332 109.996 15.9676 110.05 15.9136C110.104 15.8596 110.17 15.8326 110.247 15.8326H111.208C111.293 15.8326 111.358 15.8596 111.405 15.9136C111.459 15.9676 111.486 16.0332 111.486 16.1104V20.6825L111.08 20.3931L114.264 16.0178C114.302 15.9637 114.345 15.9213 114.391 15.8904C114.437 15.8519 114.499 15.8326 114.576 15.8326H115.456C115.525 15.8326 115.587 15.8596 115.641 15.9136C115.695 15.9599 115.722 16.0178 115.722 16.0872V21.5738C115.722 21.6509 115.695 21.7165 115.641 21.7705C115.587 21.8246 115.521 21.8516 115.444 21.8516H114.483C114.399 21.8516 114.329 21.8246 114.275 21.7705C114.229 21.7165 114.206 21.6509 114.206 21.5738V17.21L114.634 17.2679L111.428 21.6664C111.397 21.7127 111.354 21.7551 111.3 21.7937C111.254 21.8323 111.192 21.8516 111.115 21.8516H110.235ZM117.459 21.8516C117.382 21.8516 117.316 21.8246 117.262 21.7705C117.208 21.7165 117.181 21.6509 117.181 21.5738V16.1104C117.181 16.0332 117.208 15.9676 117.262 15.9136C117.316 15.8596 117.382 15.8326 117.459 15.8326H118.408C118.485 15.8326 118.551 15.8596 118.605 15.9136C118.659 15.9676 118.686 16.0332 118.686 16.1104V18.1823H119.519L120.931 16.0178C120.962 15.9637 121.001 15.9213 121.047 15.8904C121.101 15.8519 121.171 15.8326 121.255 15.8326H122.286C122.363 15.8326 122.424 15.8519 122.471 15.8904C122.517 15.929 122.54 15.9792 122.54 16.0409C122.54 16.0641 122.533 16.0911 122.517 16.1219C122.509 16.1451 122.498 16.1682 122.482 16.1914L120.816 18.7263L122.725 21.4927C122.764 21.539 122.783 21.5892 122.783 21.6432C122.783 21.7049 122.76 21.7551 122.714 21.7937C122.668 21.8323 122.61 21.8516 122.54 21.8516H121.371C121.294 21.8516 121.228 21.8361 121.174 21.8053C121.128 21.7744 121.086 21.732 121.047 21.6779L119.519 19.4092H118.686V21.5738C118.686 21.6509 118.659 21.7165 118.605 21.7705C118.551 21.8246 118.485 21.8516 118.408 21.8516H117.459Z" fill="black"/>
<path d="M16.4526 44.2783C16.3918 44.2783 16.3378 44.2547 16.2905 44.2074C16.25 44.1602 16.2297 44.1061 16.2297 44.0454C16.2297 43.9914 16.2365 43.9542 16.25 43.934L18.3566 40.6119L16.4424 37.5229C16.4154 37.4756 16.4019 37.4351 16.4019 37.4013C16.4019 37.3406 16.4188 37.2899 16.4526 37.2494C16.4863 37.2089 16.5403 37.1886 16.6146 37.1886H17.6072C17.7017 37.1886 17.776 37.2055 17.83 37.2393C17.8908 37.273 17.938 37.3169 17.9718 37.3709L19.6227 40.065H20.443V37.4317C20.443 37.3642 20.4667 37.3068 20.5139 37.2595C20.5612 37.2123 20.6186 37.1886 20.6861 37.1886H21.5673C21.6415 37.1886 21.6989 37.2123 21.7394 37.2595C21.7867 37.3068 21.8103 37.3642 21.8103 37.4317V40.065H22.6307L24.2816 37.3709C24.3154 37.3169 24.3593 37.273 24.4133 37.2393C24.474 37.2055 24.5517 37.1886 24.6462 37.1886H25.6489C25.7164 37.1886 25.7671 37.2089 25.8008 37.2494C25.8413 37.2899 25.8616 37.3406 25.8616 37.4013C25.8616 37.4351 25.8481 37.4756 25.8211 37.5229L23.9069 40.6119L26.0135 43.934C26.027 43.9542 26.0338 43.9914 26.0338 44.0454C26.0338 44.1061 26.0101 44.1602 25.9629 44.2074C25.9224 44.2547 25.8683 44.2783 25.8008 44.2783H24.7678C24.6732 44.2783 24.6023 44.2581 24.5551 44.2176C24.5145 44.177 24.4808 44.1399 24.4538 44.1061L22.6915 41.3209H21.8103V44.0454C21.8103 44.1129 21.7867 44.1703 21.7394 44.2176C21.6989 44.2581 21.6415 44.2783 21.5673 44.2783H20.6861C20.6186 44.2783 20.5612 44.2581 20.5139 44.2176C20.4667 44.1703 20.443 44.1095 20.443 44.0352V41.3209H19.5619L17.7996 44.1061C17.7793 44.1399 17.7456 44.177 17.6983 44.2176C17.6578 44.2581 17.5903 44.2783 17.4958 44.2783H16.4526ZM27.2519 44.2783C27.1911 44.2783 27.1371 44.2547 27.0899 44.2074C27.0426 44.1602 27.019 44.1061 27.019 44.0454V39.2548C27.019 39.1872 27.0426 39.1299 27.0899 39.0826C27.1371 39.0353 27.1945 39.0117 27.262 39.0117H28.1027C28.1769 39.0117 28.2343 39.0353 28.2749 39.0826C28.3221 39.1299 28.3457 39.1872 28.3457 39.2548V43.2554L27.9913 43.0022L30.7765 39.1737C30.8103 39.1265 30.8474 39.0893 30.8879 39.0623C30.9284 39.0286 30.9824 39.0117 31.05 39.0117H31.8197C31.8805 39.0117 31.9345 39.0353 31.9817 39.0826C32.029 39.1231 32.0526 39.1737 32.0526 39.2345V44.0352C32.0526 44.1028 32.029 44.1602 31.9817 44.2074C31.9345 44.2547 31.8771 44.2783 31.8096 44.2783H30.9689C30.8947 44.2783 30.8339 44.2547 30.7866 44.2074C30.7461 44.1602 30.7259 44.1028 30.7259 44.0352V40.2169L31.1006 40.2676L28.2951 44.1163C28.2681 44.1568 28.231 44.1939 28.1837 44.2277C28.1432 44.2614 28.0892 44.2783 28.0216 44.2783H27.2519ZM33.1672 44.2783C33.0929 44.2783 33.0322 44.2547 32.9849 44.2074C32.9376 44.1602 32.914 44.0994 32.914 44.0251V43.3972C32.914 43.2486 32.9917 43.1676 33.147 43.1541C33.3495 43.1406 33.5116 43.0461 33.6331 42.8705C33.7546 42.695 33.8424 42.4249 33.8964 42.0603C33.9505 41.6889 33.9775 41.2095 33.9775 40.6221V39.2548C33.9775 39.1872 34.0011 39.1299 34.0484 39.0826C34.0956 39.0353 34.1564 39.0117 34.2307 39.0117H37.8261C37.8937 39.0117 37.9511 39.0353 37.9983 39.0826C38.0456 39.1299 38.0692 39.1872 38.0692 39.2548V44.0352C38.0692 44.1028 38.0456 44.1602 37.9983 44.2074C37.9511 44.2547 37.8937 44.2783 37.8261 44.2783H36.9855C36.9112 44.2783 36.8505 44.2547 36.8032 44.2074C36.7627 44.1602 36.7424 44.1028 36.7424 44.0352V40.0853H35.2536V40.7639C35.2536 41.4121 35.2165 41.9624 35.1422 42.4147C35.0747 42.8604 34.9565 43.2216 34.7877 43.4985C34.6257 43.7685 34.4096 43.9677 34.1395 44.096C33.8762 44.2176 33.5521 44.2783 33.1672 44.2783ZM41.7006 44.3796C40.9511 44.3796 40.3569 44.1635 39.918 43.7314C39.4791 43.2993 39.2428 42.6848 39.209 41.8881C39.2023 41.8206 39.1989 41.7362 39.1989 41.6349C39.1989 41.5268 39.2023 41.4424 39.209 41.3817C39.236 40.8753 39.3508 40.4364 39.5534 40.065C39.7627 39.6937 40.0497 39.4101 40.4143 39.2143C40.7789 39.0117 41.2076 38.9104 41.7006 38.9104C42.2475 38.9104 42.7066 39.0252 43.078 39.2548C43.4493 39.4776 43.7296 39.7916 43.9186 40.1967C44.1077 40.5951 44.2022 41.0576 44.2022 41.5842V41.7969C44.2022 41.8645 44.1786 41.9218 44.1313 41.9691C44.084 42.0164 44.0233 42.04 43.949 42.04H40.5865C40.5865 42.04 40.5865 42.0501 40.5865 42.0704C40.5865 42.0906 40.5865 42.1075 40.5865 42.121C40.5932 42.3574 40.6371 42.5768 40.7181 42.7794C40.8059 42.9752 40.9308 43.1338 41.0929 43.2554C41.2617 43.3769 41.4609 43.4377 41.6904 43.4377C41.8795 43.4377 42.0382 43.4107 42.1664 43.3567C42.2947 43.2959 42.3994 43.2284 42.4804 43.1541C42.5614 43.0798 42.6188 43.0191 42.6526 42.9718C42.7134 42.8908 42.7606 42.8435 42.7944 42.83C42.8349 42.8097 42.8923 42.7996 42.9666 42.7996H43.8376C43.9051 42.7996 43.9591 42.8199 43.9996 42.8604C44.0469 42.9009 44.0672 42.9515 44.0604 43.0123C44.0537 43.1203 43.9963 43.252 43.8882 43.4073C43.7869 43.5626 43.6384 43.7145 43.4426 43.8631C43.2468 44.0116 43.0003 44.1365 42.7032 44.2378C42.4129 44.3323 42.0787 44.3796 41.7006 44.3796ZM40.5865 41.1892H42.8248V41.1589C42.8248 40.8955 42.7809 40.666 42.6931 40.4701C42.6053 40.2743 42.477 40.119 42.3082 40.0043C42.1394 39.8895 41.9369 39.8321 41.7006 39.8321C41.4642 39.8321 41.2617 39.8895 41.0929 40.0043C40.9241 40.119 40.7958 40.2743 40.708 40.4701C40.627 40.666 40.5865 40.8955 40.5865 41.1589V41.1892ZM49.7134 45.514C49.6459 45.514 49.5885 45.4903 49.5412 45.4431C49.494 45.3958 49.4703 45.3384 49.4703 45.2709V44.2783H45.5204C45.4528 44.2783 45.3954 44.2547 45.3482 44.2074C45.3009 44.1602 45.2773 44.1028 45.2773 44.0352V39.2548C45.2773 39.1872 45.3009 39.1299 45.3482 39.0826C45.3954 39.0353 45.4528 39.0117 45.5204 39.0117H46.361C46.4353 39.0117 46.4927 39.0353 46.5332 39.0826C46.5804 39.1299 46.6041 39.1872 46.6041 39.2548V43.2047H48.7715V39.2548C48.7715 39.1872 48.7951 39.1299 48.8424 39.0826C48.8896 39.0353 48.947 39.0117 49.0146 39.0117H49.8552C49.9295 39.0117 49.9869 39.0353 50.0274 39.0826C50.0746 39.1299 50.0983 39.1872 50.0983 39.2548V43.2047H50.554C50.6216 43.2047 50.6789 43.2284 50.7262 43.2756C50.7735 43.3229 50.7971 43.3803 50.7971 43.4478V45.2709C50.7971 45.3384 50.7735 45.3958 50.7262 45.4431C50.6789 45.4903 50.6216 45.514 50.554 45.514H49.7134ZM51.9387 40.7335C51.8712 40.7335 51.8138 40.7098 51.7666 40.6626C51.7193 40.6153 51.6957 40.5579 51.6957 40.4904V39.5282C51.6957 39.454 51.7193 39.3932 51.7666 39.3459C51.8138 39.2987 51.8712 39.275 51.9387 39.275H52.9414C53.0157 39.275 53.0765 39.2987 53.1237 39.3459C53.171 39.3932 53.1946 39.454 53.1946 39.5282V40.4904C53.1946 40.5579 53.171 40.6153 53.1237 40.6626C53.0765 40.7098 53.0157 40.7335 52.9414 40.7335H51.9387ZM51.9387 44.2783C51.8712 44.2783 51.8138 44.2547 51.7666 44.2074C51.7193 44.1602 51.6957 44.1028 51.6957 44.0352V43.0731C51.6957 42.9988 51.7193 42.938 51.7666 42.8908C51.8138 42.8435 51.8712 42.8199 51.9387 42.8199H52.9414C53.0157 42.8199 53.0765 42.8435 53.1237 42.8908C53.171 42.938 53.1946 42.9988 53.1946 43.0731V44.0352C53.1946 44.1028 53.171 44.1602 53.1237 44.2074C53.0765 44.2547 53.0157 44.2783 52.9414 44.2783H51.9387Z" fill="#6C6C6C"/>
<path d="M85.1242 44.7783C85.0567 44.7783 84.9993 44.7581 84.952 44.7176C84.9115 44.6703 84.8912 44.6129 84.8912 44.5454V44.12C84.8912 44.0457 84.9115 43.9883 84.952 43.9478C84.9993 43.9005 85.0567 43.8769 85.1242 43.8769H85.4787C85.6947 43.8769 85.8804 43.8263 86.0357 43.725C86.191 43.617 86.3362 43.4515 86.4712 43.2287C86.613 43.0059 86.7582 42.7156 86.9067 42.3577L88.8817 37.8608C88.902 37.8 88.9357 37.7562 88.983 37.7291C89.0303 37.7021 89.0809 37.6886 89.1349 37.6886H89.6818C89.7359 37.6886 89.7831 37.7089 89.8236 37.7494C89.8642 37.7899 89.8844 37.8372 89.8844 37.8912C89.8844 37.9182 89.881 37.9452 89.8743 37.9722C89.8743 37.9925 89.8675 38.0127 89.854 38.033L87.7879 42.7122C87.6258 43.07 87.4739 43.3806 87.3321 43.644C87.1903 43.9005 87.0384 44.1132 86.8764 44.282C86.7143 44.4508 86.5252 44.5758 86.3092 44.6568C86.0931 44.7378 85.8332 44.7783 85.5293 44.7783H85.1242ZM86.846 43.0565L84.081 38.0127C84.0607 37.9722 84.0506 37.9351 84.0506 37.9013C84.0506 37.8473 84.0709 37.8 84.1114 37.7595C84.1586 37.7123 84.2093 37.6886 84.2633 37.6886H84.8305C84.8912 37.6886 84.9419 37.7021 84.9824 37.7291C85.0229 37.7562 85.0567 37.8 85.0837 37.8608L87.3828 42.0437L86.846 43.0565ZM90.3793 44.7783C90.3118 44.7783 90.2544 44.7547 90.2072 44.7074C90.1599 44.6602 90.1363 44.6028 90.1363 44.5352V44.1605C90.1363 44.0187 90.2072 43.9444 90.349 43.9377C90.5583 43.9309 90.7338 43.833 90.8756 43.644C91.0174 43.4482 91.1254 43.1409 91.1997 42.7223C91.274 42.2969 91.3111 41.7365 91.3111 41.041V39.7446C91.3111 39.6771 91.3314 39.6231 91.3719 39.5826C91.4192 39.5353 91.4766 39.5117 91.5441 39.5117H94.7648C94.8323 39.5117 94.8864 39.5353 94.9269 39.5826C94.9741 39.6231 94.9978 39.6771 94.9978 39.7446V44.5454C94.9978 44.6129 94.9741 44.6703 94.9269 44.7176C94.8864 44.7581 94.8323 44.7783 94.7648 44.7783H94.2787C94.2112 44.7783 94.1571 44.7581 94.1166 44.7176C94.0761 44.6703 94.0559 44.6129 94.0559 44.5454V40.3219H92.2328V41.1525C92.2328 41.8007 92.1957 42.3577 92.1214 42.8236C92.0471 43.2827 91.9323 43.6575 91.777 43.9478C91.6285 44.2314 91.436 44.4407 91.1997 44.5758C90.9702 44.7108 90.6967 44.7783 90.3793 44.7783ZM96.7507 46.7027C96.6765 46.7027 96.6191 46.679 96.5785 46.6318C96.538 46.5913 96.5178 46.5372 96.5178 46.4697V46.1254C96.5178 46.0578 96.538 46.0004 96.5785 45.9532C96.6191 45.9127 96.6765 45.8924 96.7507 45.8924H97.0141C97.1694 45.8924 97.2943 45.862 97.3888 45.8013C97.4833 45.7405 97.5677 45.6358 97.642 45.4873C97.723 45.3455 97.8176 45.1497 97.9256 44.8999L100.123 39.6839C100.144 39.6299 100.171 39.5893 100.204 39.5623C100.245 39.5286 100.302 39.5117 100.377 39.5117H100.822C100.883 39.5117 100.934 39.532 100.974 39.5725C101.015 39.613 101.035 39.6602 101.035 39.7143C101.035 39.7413 101.032 39.7683 101.025 39.7953C101.018 39.8155 101.005 39.8493 100.984 39.8966L99.0599 44.4542C98.9587 44.6973 98.8472 44.9505 98.7257 45.2138C98.6109 45.4772 98.4793 45.7202 98.3307 45.9431C98.1889 46.1726 98.0201 46.3549 97.8243 46.49C97.6285 46.6318 97.3989 46.7027 97.1356 46.7027H96.7507ZM98.1585 44.6264L96.1127 39.8966C96.0789 39.8155 96.062 39.7581 96.062 39.7244C96.0688 39.6636 96.0924 39.613 96.1329 39.5725C96.1734 39.532 96.2207 39.5117 96.2747 39.5117H96.7507C96.825 39.5117 96.879 39.5286 96.9128 39.5623C96.9533 39.5961 96.9837 39.6366 97.0039 39.6839L98.6852 43.7047L98.1585 44.6264ZM102.289 44.7783C102.222 44.7783 102.164 44.7581 102.117 44.7176C102.077 44.6703 102.056 44.6129 102.056 44.5454V39.7446C102.056 39.6771 102.077 39.6231 102.117 39.5826C102.164 39.5353 102.222 39.5117 102.289 39.5117H105.318C105.385 39.5117 105.439 39.5353 105.48 39.5826C105.52 39.6231 105.54 39.6771 105.54 39.7446V40.089C105.54 40.1565 105.52 40.2139 105.48 40.2612C105.439 40.3017 105.385 40.3219 105.318 40.3219H102.998V44.5454C102.998 44.6129 102.978 44.6703 102.938 44.7176C102.897 44.7581 102.843 44.7783 102.775 44.7783H102.289ZM108.636 44.8796C108.117 44.8796 107.681 44.7817 107.33 44.5859C106.986 44.3833 106.722 44.0997 106.54 43.7351C106.364 43.3638 106.27 42.935 106.256 42.4489C106.25 42.2463 106.246 42.0437 106.246 41.8412C106.246 41.6386 106.25 41.436 106.256 41.2335C106.256 40.619 106.307 40.1093 106.408 39.7041C106.51 39.299 106.661 38.9682 106.864 38.7116C107.073 38.4482 107.337 38.2322 107.654 38.0634C107.971 37.8946 108.346 37.7494 108.778 37.6279C109.21 37.4996 109.703 37.3645 110.257 37.2227C110.318 37.2092 110.375 37.2194 110.429 37.2531C110.49 37.2869 110.524 37.3341 110.53 37.3949L110.611 37.8102C110.625 37.8709 110.615 37.925 110.581 37.9722C110.554 38.0195 110.51 38.0499 110.449 38.0634C109.943 38.1917 109.501 38.3031 109.123 38.3976C108.745 38.4921 108.427 38.6035 108.171 38.7318C107.914 38.8534 107.708 39.012 107.553 39.2079C107.397 39.4037 107.289 39.6636 107.229 39.9877C107.175 40.3118 107.158 40.7271 107.178 41.2335L106.955 41.1423C106.989 40.8925 107.094 40.6663 107.269 40.4637C107.451 40.2544 107.678 40.0856 107.948 39.9573C108.218 39.829 108.505 39.7649 108.809 39.7649C109.275 39.7649 109.666 39.8628 109.984 40.0586C110.308 40.2544 110.554 40.5211 110.723 40.8587C110.898 41.1963 110.996 41.5846 111.017 42.0235C111.03 42.253 111.03 42.4522 111.017 42.621C110.996 43.0599 110.895 43.4515 110.713 43.7959C110.53 44.1335 110.267 44.4002 109.923 44.596C109.578 44.7851 109.15 44.8796 108.636 44.8796ZM108.636 44.1301C109.062 44.1301 109.399 43.9985 109.649 43.7351C109.899 43.4718 110.031 43.0869 110.044 42.5805C110.051 42.513 110.054 42.4353 110.054 42.3476C110.054 42.2598 110.051 42.1686 110.044 42.0741C110.031 41.561 109.899 41.1727 109.649 40.9094C109.406 40.646 109.099 40.5144 108.728 40.5144C108.302 40.5144 107.951 40.646 107.674 40.9094C107.397 41.1727 107.249 41.561 107.229 42.0741C107.222 42.1686 107.219 42.2598 107.219 42.3476C107.219 42.4353 107.222 42.513 107.229 42.5805C107.249 43.0869 107.384 43.4718 107.634 43.7351C107.884 43.9985 108.218 44.1301 108.636 44.1301ZM114.39 44.8796C113.694 44.8796 113.141 44.6669 112.729 44.2415C112.317 43.8094 112.091 43.222 112.05 42.4792C112.043 42.3915 112.04 42.28 112.04 42.145C112.04 42.0032 112.043 41.8884 112.05 41.8007C112.077 41.3213 112.189 40.9026 112.384 40.5448C112.58 40.1802 112.847 39.8999 113.185 39.7041C113.529 39.5083 113.931 39.4104 114.39 39.4104C114.903 39.4104 115.332 39.5184 115.676 39.7345C116.027 39.9506 116.294 40.2578 116.476 40.6562C116.659 41.0545 116.75 41.5204 116.75 42.0539V42.226C116.75 42.3003 116.726 42.3577 116.679 42.3982C116.638 42.4387 116.584 42.459 116.517 42.459H113.012C113.012 42.4657 113.012 42.4792 113.012 42.4995C113.012 42.5197 113.012 42.5366 113.012 42.5501C113.026 42.827 113.087 43.0869 113.195 43.33C113.303 43.5663 113.458 43.7588 113.661 43.9073C113.863 44.0558 114.106 44.1301 114.39 44.1301C114.633 44.1301 114.835 44.093 114.997 44.0187C115.16 43.9444 115.291 43.8634 115.392 43.7756C115.494 43.6811 115.561 43.6102 115.595 43.5629C115.656 43.4752 115.703 43.4245 115.737 43.411C115.771 43.3908 115.825 43.3806 115.899 43.3806H116.385C116.453 43.3806 116.507 43.4009 116.547 43.4414C116.594 43.4752 116.615 43.5258 116.608 43.5933C116.601 43.6946 116.547 43.8195 116.446 43.9681C116.345 44.1099 116.199 44.2517 116.01 44.3935C115.821 44.5352 115.592 44.6534 115.322 44.7479C115.052 44.8357 114.741 44.8796 114.39 44.8796ZM113.012 41.7601H115.787V41.7298C115.787 41.4259 115.73 41.1558 115.615 40.9195C115.507 40.6832 115.349 40.4975 115.139 40.3625C114.93 40.2207 114.68 40.1498 114.39 40.1498C114.099 40.1498 113.85 40.2207 113.64 40.3625C113.438 40.4975 113.282 40.6832 113.174 40.9195C113.066 41.1558 113.012 41.4259 113.012 41.7298V41.7601ZM118.194 44.7783C118.126 44.7783 118.069 44.7581 118.021 44.7176C117.981 44.6703 117.961 44.6129 117.961 44.5454V39.7446C117.961 39.6771 117.981 39.6231 118.021 39.5826C118.069 39.5353 118.126 39.5117 118.194 39.5117H118.67C118.737 39.5117 118.791 39.5353 118.832 39.5826C118.879 39.6231 118.903 39.6771 118.903 39.7446V41.6892H119.824L121.192 39.6636C121.225 39.6164 121.262 39.5792 121.303 39.5522C121.343 39.5252 121.397 39.5117 121.465 39.5117H121.992C122.052 39.5117 122.103 39.5252 122.144 39.5522C122.184 39.5792 122.204 39.6197 122.204 39.6737C122.204 39.6872 122.198 39.7075 122.184 39.7345C122.177 39.7548 122.167 39.775 122.154 39.7953L120.635 42.0336L122.356 44.4846C122.39 44.5251 122.407 44.569 122.407 44.6163C122.407 44.6703 122.387 44.7108 122.346 44.7378C122.312 44.7648 122.265 44.7783 122.204 44.7783H121.587C121.526 44.7783 121.475 44.7648 121.435 44.7378C121.394 44.7108 121.357 44.6737 121.323 44.6264L119.834 42.5096H118.903V44.5454C118.903 44.6129 118.879 44.6703 118.832 44.7176C118.791 44.7581 118.737 44.7783 118.67 44.7783H118.194Z" fill="black"/>
<path d="M19.4404 60.8264C18.8124 60.8264 18.279 60.7183 17.8401 60.5023C17.408 60.2795 17.0771 59.9655 16.8476 59.5604C16.618 59.1485 16.4897 58.6556 16.4627 58.0817C16.4559 57.8048 16.4526 57.5077 16.4526 57.1904C16.4526 56.873 16.4559 56.5692 16.4627 56.2789C16.4897 55.7117 16.618 55.2221 16.8476 54.8103C17.0839 54.3984 17.4181 54.0844 17.8502 53.8684C18.2891 53.6455 18.8192 53.5341 19.4404 53.5341C19.8995 53.5341 20.3114 53.5949 20.676 53.7164C21.0406 53.838 21.3512 54.0068 21.6078 54.2228C21.8644 54.4322 22.0635 54.6786 22.2053 54.9622C22.3471 55.2458 22.4214 55.553 22.4282 55.8839C22.4349 55.9446 22.4147 55.9953 22.3674 56.0358C22.3269 56.0763 22.2762 56.0965 22.2155 56.0965H21.2533C21.179 56.0965 21.1183 56.0797 21.071 56.0459C21.0237 56.0054 20.99 55.9412 20.9697 55.8535C20.8617 55.4078 20.676 55.104 20.4127 54.9419C20.1493 54.7799 19.8219 54.6989 19.4302 54.6989C18.9778 54.6989 18.6166 54.8272 18.3465 55.0837C18.0764 55.3336 17.9313 55.7488 17.911 56.3295C17.8908 56.8832 17.8908 57.4503 17.911 58.031C17.9313 58.6117 18.0764 59.0303 18.3465 59.2869C18.6166 59.5367 18.9778 59.6616 19.4302 59.6616C19.8219 59.6616 20.1493 59.5806 20.4127 59.4186C20.676 59.2498 20.8617 58.9459 20.9697 58.507C20.99 58.4125 21.0237 58.3484 21.071 58.3146C21.1183 58.2808 21.179 58.264 21.2533 58.264H22.2155C22.2762 58.264 22.3269 58.2842 22.3674 58.3247C22.4147 58.3652 22.4349 58.4159 22.4282 58.4767C22.4214 58.8075 22.3471 59.1147 22.2053 59.3983C22.0635 59.6819 21.8644 59.9317 21.6078 60.1478C21.3512 60.3571 21.0406 60.5225 20.676 60.6441C20.3114 60.7656 19.8995 60.8264 19.4404 60.8264ZM25.8372 60.8264C25.2971 60.8264 24.8413 60.7318 24.4699 60.5428C24.1053 60.3537 23.8251 60.087 23.6293 59.7427C23.4402 59.3983 23.3322 58.9966 23.3052 58.5374C23.2984 58.4159 23.2951 58.2673 23.2951 58.0918C23.2951 57.9162 23.2984 57.7677 23.3052 57.6461C23.3322 57.1803 23.4436 56.7785 23.6394 56.4409C23.842 56.0965 24.1256 55.8298 24.4902 55.6408C24.8615 55.4517 25.3106 55.3572 25.8372 55.3572C26.3639 55.3572 26.8095 55.4517 27.1741 55.6408C27.5455 55.8298 27.8291 56.0965 28.0249 56.4409C28.2275 56.7785 28.3422 57.1803 28.3692 57.6461C28.376 57.7677 28.3794 57.9162 28.3794 58.0918C28.3794 58.2673 28.376 58.4159 28.3692 58.5374C28.3422 58.9966 28.2308 59.3983 28.035 59.7427C27.846 60.087 27.5658 60.3537 27.1944 60.5428C26.8298 60.7318 26.3774 60.8264 25.8372 60.8264ZM25.8372 59.8237C26.1951 59.8237 26.4719 59.7123 26.6677 59.4895C26.8635 59.2599 26.9716 58.9257 26.9918 58.4868C26.9986 58.3855 27.002 58.2538 27.002 58.0918C27.002 57.9297 26.9986 57.7981 26.9918 57.6968C26.9716 57.2647 26.8635 56.9338 26.6677 56.7042C26.4719 56.4747 26.1951 56.3599 25.8372 56.3599C25.4794 56.3599 25.2025 56.4747 25.0067 56.7042C24.8109 56.9338 24.7029 57.2647 24.6826 57.6968C24.6759 57.7981 24.6725 57.9297 24.6725 58.0918C24.6725 58.2538 24.6759 58.3855 24.6826 58.4868C24.7029 58.9257 24.8109 59.2599 25.0067 59.4895C25.2025 59.7123 25.4794 59.8237 25.8372 59.8237ZM31.5272 60.8264C31.095 60.8264 30.7304 60.7757 30.4333 60.6745C30.143 60.5732 29.91 60.4449 29.7345 60.2896C29.5657 60.1343 29.4408 59.9722 29.3597 59.8034C29.2855 59.6279 29.2416 59.4692 29.2281 59.3274C29.2281 59.2666 29.2483 59.2194 29.2889 59.1856C29.3294 59.1519 29.3733 59.135 29.4205 59.135H30.251C30.3185 59.135 30.3692 59.1485 30.4029 59.1755C30.4435 59.2025 30.4772 59.2464 30.5042 59.3072C30.5717 59.5097 30.6967 59.6515 30.879 59.7325C31.068 59.8136 31.301 59.8541 31.5778 59.8541C31.7669 59.8541 31.9357 59.8304 32.0842 59.7832C32.2328 59.7292 32.3475 59.6515 32.4286 59.5502C32.5096 59.4422 32.5501 59.3105 32.5501 59.1552C32.5501 58.9324 32.486 58.7636 32.3577 58.6488C32.2294 58.5273 32.0201 58.4665 31.7297 58.4665H31.1727C31.1052 58.4665 31.0511 58.4463 31.0106 58.4058C30.9701 58.3652 30.9499 58.3112 30.9499 58.2437V57.8183C30.9499 57.7576 30.9701 57.7069 31.0106 57.6664C31.0511 57.6191 31.1052 57.5955 31.1727 57.5955H31.6892C31.9323 57.5955 32.1146 57.5516 32.2361 57.4638C32.3577 57.3693 32.4184 57.2241 32.4184 57.0283C32.4184 56.9135 32.3881 56.8055 32.3273 56.7042C32.2733 56.5962 32.1821 56.5084 32.0538 56.4409C31.9255 56.3734 31.7466 56.3396 31.517 56.3396C31.1997 56.3396 30.9735 56.3903 30.8385 56.4915C30.7034 56.5928 30.6055 56.7447 30.5447 56.9473C30.5177 57.0081 30.484 57.052 30.4435 57.079C30.4097 57.106 30.3557 57.1195 30.2814 57.1195H29.4813C29.4273 57.1195 29.38 57.1026 29.3395 57.0688C29.3057 57.0351 29.2889 56.9878 29.2889 56.9271C29.3024 56.7447 29.3496 56.5624 29.4306 56.3801C29.5184 56.1911 29.6501 56.0189 29.8256 55.8636C30.0079 55.7083 30.2375 55.5868 30.5144 55.499C30.7912 55.4045 31.1288 55.3572 31.5272 55.3572C32.0673 55.3572 32.4961 55.4315 32.8134 55.58C33.1308 55.7286 33.357 55.9176 33.492 56.1472C33.6338 56.37 33.7047 56.603 33.7047 56.846C33.7047 57.0959 33.6574 57.3119 33.5629 57.4942C33.4751 57.6765 33.3097 57.8251 33.0666 57.9399C33.3705 58.0546 33.5798 58.2302 33.6946 58.4665C33.8094 58.7028 33.8701 58.9628 33.8769 59.2464C33.8769 59.584 33.779 59.871 33.5832 60.1073C33.3874 60.3369 33.1139 60.5158 32.7628 60.6441C32.4117 60.7656 31.9998 60.8264 31.5272 60.8264ZM34.7191 61.8392C34.6516 61.8392 34.5942 61.8156 34.5469 61.7683C34.4997 61.721 34.476 61.6636 34.476 61.5961V59.8946C34.476 59.8271 34.4997 59.7697 34.5469 59.7224C34.5942 59.6751 34.6516 59.6515 34.7191 59.6515H34.8001C34.9757 59.6515 35.1175 59.5604 35.2255 59.3781C35.3403 59.189 35.4247 58.9054 35.4787 58.5273C35.5327 58.1424 35.5597 57.6563 35.5597 57.0688V55.7015C35.5597 55.634 35.5834 55.5766 35.6306 55.5294C35.6779 55.4821 35.7353 55.4585 35.8028 55.4585H39.4084C39.4827 55.4585 39.5401 55.4821 39.5806 55.5294C39.6279 55.5766 39.6515 55.634 39.6515 55.7015V59.6414H40.1073C40.1815 59.6414 40.2389 59.665 40.2795 59.7123C40.3267 59.7595 40.3503 59.8169 40.3503 59.8845V61.5961C40.3503 61.6636 40.3267 61.721 40.2795 61.7683C40.2389 61.8156 40.1815 61.8392 40.1073 61.8392H39.2666C39.1991 61.8392 39.1417 61.8156 39.0945 61.7683C39.0472 61.721 39.0236 61.6636 39.0236 61.5961V60.7251H35.8028V61.5961C35.8028 61.6636 35.7792 61.721 35.7319 61.7683C35.6847 61.8156 35.6273 61.8392 35.5597 61.8392H34.7191ZM36.3599 59.6515L38.3247 59.6414V56.5321H36.8359V57.2106C36.8359 57.8183 36.7954 58.3214 36.7144 58.7197C36.6333 59.1181 36.5152 59.4287 36.3599 59.6515ZM42.8108 60.8264C42.4597 60.8264 42.1423 60.7589 41.8587 60.6238C41.5751 60.482 41.3489 60.2963 41.1801 60.0668C41.0181 59.8304 40.9371 59.5671 40.9371 59.2768C40.9371 58.8041 41.1261 58.4294 41.5042 58.1526C41.8891 57.869 42.3955 57.6799 43.0235 57.5854L44.411 57.3828V57.1701C44.411 56.8865 44.3401 56.6671 44.1983 56.5118C44.0565 56.3565 43.8135 56.2789 43.4691 56.2789C43.226 56.2789 43.0268 56.3295 42.8715 56.4308C42.723 56.5253 42.6116 56.6536 42.5373 56.8156C42.4833 56.9034 42.4056 56.9473 42.3044 56.9473H41.5042C41.43 56.9473 41.3726 56.9271 41.3321 56.8865C41.2983 56.846 41.2814 56.792 41.2814 56.7245C41.2882 56.6165 41.3321 56.4848 41.4131 56.3295C41.4941 56.1742 41.6224 56.0256 41.798 55.8839C41.9735 55.7353 42.1997 55.6104 42.4765 55.5091C42.7534 55.4078 43.0876 55.3572 43.4792 55.3572C43.9046 55.3572 44.2625 55.4112 44.5528 55.5192C44.8499 55.6205 45.0862 55.7589 45.2618 55.9345C45.4373 56.11 45.5656 56.316 45.6466 56.5523C45.7277 56.7886 45.7682 57.0385 45.7682 57.3018V60.482C45.7682 60.5495 45.7445 60.6069 45.6973 60.6542C45.65 60.7015 45.5926 60.7251 45.5251 60.7251H44.7047C44.6305 60.7251 44.5697 60.7015 44.5224 60.6542C44.4819 60.6069 44.4617 60.5495 44.4617 60.482V60.087C44.3739 60.2153 44.2557 60.3369 44.1072 60.4516C43.9586 60.5597 43.7763 60.6508 43.5602 60.7251C43.3509 60.7926 43.1011 60.8264 42.8108 60.8264ZM43.1551 59.8642C43.3914 59.8642 43.6041 59.8136 43.7932 59.7123C43.989 59.611 44.1409 59.4557 44.249 59.2464C44.3637 59.0303 44.4211 58.7602 44.4211 58.4361V58.2235L43.4083 58.3855C43.01 58.4463 42.7129 58.5442 42.5171 58.6792C42.3212 58.8143 42.2233 58.9797 42.2233 59.1755C42.2233 59.324 42.2672 59.4523 42.355 59.5604C42.4495 59.6616 42.5677 59.7393 42.7095 59.7933C42.8513 59.8406 42.9998 59.8642 43.1551 59.8642ZM47.3106 60.7251C47.2431 60.7251 47.1857 60.7015 47.1384 60.6542C47.0911 60.6069 47.0675 60.5495 47.0675 60.482V55.7015C47.0675 55.634 47.0911 55.5766 47.1384 55.5294C47.1857 55.4821 47.2431 55.4585 47.3106 55.4585H48.1512C48.2255 55.4585 48.2829 55.4821 48.3234 55.5294C48.3707 55.5766 48.3943 55.634 48.3943 55.7015V57.5145H50.6832V55.7015C50.6832 55.634 50.7069 55.5766 50.7541 55.5294C50.8014 55.4821 50.8588 55.4585 50.9263 55.4585H51.767C51.8345 55.4585 51.8919 55.4821 51.9391 55.5294C51.9864 55.5766 52.01 55.634 52.01 55.7015V60.482C52.01 60.5495 51.9864 60.6069 51.9391 60.6542C51.8919 60.7015 51.8345 60.7251 51.767 60.7251H50.9263C50.8588 60.7251 50.8014 60.7015 50.7541 60.6542C50.7069 60.6069 50.6832 60.5495 50.6832 60.482V58.5779H48.3943V60.482C48.3943 60.5495 48.3707 60.6069 48.3234 60.6542C48.2829 60.7015 48.2255 60.7251 48.1512 60.7251H47.3106ZM55.7073 60.8264C55.1671 60.8264 54.7113 60.7318 54.34 60.5428C53.9754 60.3537 53.6952 60.087 53.4993 59.7427C53.3103 59.3983 53.2022 58.9966 53.1752 58.5374C53.1685 58.4159 53.1651 58.2673 53.1651 58.0918C53.1651 57.9162 53.1685 57.7677 53.1752 57.6461C53.2022 57.1803 53.3137 56.7785 53.5095 56.4409C53.712 56.0965 53.9956 55.8298 54.3602 55.6408C54.7316 55.4517 55.1806 55.3572 55.7073 55.3572C56.2339 55.3572 56.6796 55.4517 57.0442 55.6408C57.4155 55.8298 57.6991 56.0965 57.8949 56.4409C58.0975 56.7785 58.2123 57.1803 58.2393 57.6461C58.2461 57.7677 58.2494 57.9162 58.2494 58.0918C58.2494 58.2673 58.2461 58.4159 58.2393 58.5374C58.2123 58.9966 58.1009 59.3983 57.9051 59.7427C57.716 60.087 57.4358 60.3537 57.0644 60.5428C56.6998 60.7318 56.2474 60.8264 55.7073 60.8264ZM55.7073 59.8237C56.0651 59.8237 56.342 59.7123 56.5378 59.4895C56.7336 59.2599 56.8416 58.9257 56.8619 58.4868C56.8686 58.3855 56.872 58.2538 56.872 58.0918C56.872 57.9297 56.8686 57.7981 56.8619 57.6968C56.8416 57.2647 56.7336 56.9338 56.5378 56.7042C56.342 56.4747 56.0651 56.3599 55.7073 56.3599C55.3494 56.3599 55.0726 56.4747 54.8768 56.7042C54.681 56.9338 54.5729 57.2647 54.5527 57.6968C54.5459 57.7981 54.5425 57.9297 54.5425 58.0918C54.5425 58.2538 54.5459 58.3855 54.5527 58.4868C54.5729 58.9257 54.681 59.2599 54.8768 59.4895C55.0726 59.7123 55.3494 59.8237 55.7073 59.8237ZM61.9291 60.7251C61.8616 60.7251 61.8042 60.7015 61.7569 60.6542C61.7097 60.6069 61.686 60.5495 61.686 60.482V55.7015C61.686 55.634 61.7097 55.5766 61.7569 55.5294C61.8042 55.4821 61.8616 55.4585 61.9291 55.4585H64.1775C64.8933 55.4585 65.4233 55.5901 65.7677 55.8535C66.112 56.1168 66.2842 56.4713 66.2842 56.9169C66.2842 57.2005 66.2302 57.42 66.1221 57.5753C66.0141 57.7305 65.8656 57.8656 65.6765 57.9804C65.9128 58.0884 66.0951 58.2538 66.2234 58.4767C66.3585 58.6927 66.426 58.9324 66.426 59.1958C66.426 59.6819 66.2437 60.06 65.8791 60.3301C65.5212 60.5934 64.9912 60.7251 64.289 60.7251H61.9291ZM62.9824 59.8136H64.1978C64.4679 59.8136 64.684 59.7629 64.846 59.6616C65.0081 59.5604 65.0891 59.4017 65.0891 59.1856C65.0891 58.9628 65.0148 58.8008 64.8663 58.6995C64.7177 58.5982 64.4949 58.5476 64.1978 58.5476H62.9824V59.8136ZM62.9824 57.6056H64.1573C64.4274 57.6056 64.6401 57.5516 64.7954 57.4436C64.9507 57.3288 65.0283 57.1634 65.0283 56.9473C65.0283 56.7312 64.9473 56.5827 64.7852 56.5017C64.6299 56.4139 64.4206 56.37 64.1573 56.37H62.9824V57.6056ZM67.8035 57.1803C67.736 57.1803 67.6786 57.1566 67.6313 57.1094C67.5841 57.0621 67.5604 57.0047 67.5604 56.9372V55.975C67.5604 55.9007 67.5841 55.84 67.6313 55.7927C67.6786 55.7454 67.736 55.7218 67.8035 55.7218H68.8062C68.8805 55.7218 68.9412 55.7454 68.9885 55.7927C69.0358 55.84 69.0594 55.9007 69.0594 55.975V56.9372C69.0594 57.0047 69.0358 57.0621 68.9885 57.1094C68.9412 57.1566 68.8805 57.1803 68.8062 57.1803H67.8035ZM67.8035 60.7251C67.736 60.7251 67.6786 60.7015 67.6313 60.6542C67.5841 60.6069 67.5604 60.5495 67.5604 60.482V59.5199C67.5604 59.4456 67.5841 59.3848 67.6313 59.3375C67.6786 59.2903 67.736 59.2666 67.8035 59.2666H68.8062C68.8805 59.2666 68.9412 59.2903 68.9885 59.3375C69.0358 59.3848 69.0594 59.4456 69.0594 59.5199V60.482C69.0594 60.5495 69.0358 60.6069 68.9885 60.6542C68.9412 60.7015 68.8805 60.7251 68.8062 60.7251H67.8035Z" fill="#6C6C6C"/>
<path d="M86.7143 60.7251C86.6468 60.7251 86.5894 60.7048 86.5421 60.6643C86.5016 60.6171 86.4814 60.5597 86.4814 60.4922V54.8204L84.8001 56.1168C84.7461 56.1573 84.6887 56.1742 84.6279 56.1674C84.5671 56.1607 84.5165 56.1303 84.476 56.0763L84.2127 55.7421C84.1721 55.6813 84.1553 55.6205 84.162 55.5598C84.1755 55.499 84.2093 55.4483 84.2633 55.4078L86.4712 53.7063C86.5185 53.6725 86.5624 53.6523 86.6029 53.6455C86.6434 53.6388 86.6873 53.6354 86.7346 53.6354H87.2511C87.3186 53.6354 87.3726 53.659 87.4131 53.7063C87.4537 53.7468 87.4739 53.8008 87.4739 53.8684V60.4922C87.4739 60.5597 87.4537 60.6171 87.4131 60.6643C87.3726 60.7048 87.3186 60.7251 87.2511 60.7251H86.7143ZM88.9803 60.7251C88.9128 60.7251 88.8554 60.7048 88.8081 60.6643C88.7676 60.6171 88.7474 60.5597 88.7474 60.4922V60.1681C88.7474 60.1073 88.7643 60.0398 88.798 59.9655C88.8318 59.8912 88.8993 59.8102 89.0006 59.7224L91.1477 57.5753C91.4921 57.2849 91.7622 57.0385 91.958 56.8359C92.1605 56.6266 92.3023 56.4274 92.3834 56.2383C92.4711 56.0493 92.515 55.8535 92.515 55.6509C92.515 55.266 92.407 54.9622 92.1909 54.7394C91.9749 54.5098 91.6541 54.395 91.2288 54.395C90.9587 54.395 90.7257 54.4524 90.5299 54.5672C90.3341 54.6752 90.1788 54.8272 90.064 55.023C89.956 55.212 89.8851 55.4281 89.8513 55.6712C89.8378 55.7589 89.8007 55.8197 89.7399 55.8535C89.6859 55.8872 89.6353 55.9041 89.588 55.9041H89.0613C89.0006 55.9041 88.9499 55.8872 88.9094 55.8535C88.8689 55.813 88.8487 55.7657 88.8487 55.7117C88.8554 55.4551 88.9094 55.1985 89.0107 54.9419C89.112 54.6786 89.2605 54.4423 89.4563 54.233C89.6589 54.0237 89.9054 53.8549 90.1957 53.7266C90.4928 53.5915 90.8371 53.524 91.2288 53.524C91.7622 53.524 92.1977 53.6219 92.5353 53.8177C92.8796 54.0068 93.1328 54.26 93.2949 54.5773C93.4569 54.8947 93.538 55.2424 93.538 55.6205C93.538 55.9176 93.4873 56.1911 93.3861 56.4409C93.2848 56.684 93.1362 56.9237 92.9404 57.16C92.7514 57.3896 92.515 57.6259 92.2314 57.869L90.2868 59.844H93.4468C93.5211 59.844 93.5785 59.8642 93.619 59.9047C93.6663 59.9452 93.6899 60.0026 93.6899 60.0769V60.4922C93.6899 60.5597 93.6663 60.6171 93.619 60.6643C93.5785 60.7048 93.5211 60.7251 93.4468 60.7251H88.9803ZM94.6613 61.5759C94.6073 61.5759 94.56 61.5556 94.5195 61.5151C94.479 61.4746 94.4588 61.4273 94.4588 61.3733C94.4588 61.3395 94.4689 61.299 94.4891 61.2518L97.953 52.9467C97.9732 52.9062 98.0002 52.8657 98.034 52.8252C98.0745 52.7846 98.1353 52.7644 98.2163 52.7644H98.6113C98.6653 52.7644 98.7126 52.7846 98.7531 52.8252C98.7936 52.8657 98.8139 52.9129 98.8139 52.967C98.8139 52.994 98.8071 53.0345 98.7936 53.0885L95.3197 61.3936C95.3061 61.4273 95.2758 61.4645 95.2285 61.505C95.188 61.5522 95.1306 61.5759 95.0563 61.5759H94.6613ZM102.094 60.8264C101.628 60.8264 101.233 60.7555 100.909 60.6137C100.592 60.4651 100.332 60.2626 100.129 60.006C99.9268 59.7494 99.7783 59.4557 99.6838 59.1249C99.596 58.794 99.5453 58.4429 99.5318 58.0715C99.5251 57.8892 99.5183 57.6968 99.5116 57.4942C99.5116 57.2917 99.5116 57.0891 99.5116 56.8865C99.5183 56.6772 99.5251 56.478 99.5318 56.289C99.5386 55.9176 99.5892 55.5665 99.6838 55.2357C99.785 54.898 99.9336 54.6043 100.129 54.3545C100.332 54.0979 100.595 53.8987 100.919 53.7569C101.243 53.6084 101.635 53.5341 102.094 53.5341C102.56 53.5341 102.952 53.6084 103.269 53.7569C103.593 53.8987 103.857 54.0979 104.059 54.3545C104.262 54.6043 104.41 54.898 104.505 55.2357C104.606 55.5665 104.66 55.9176 104.667 56.289C104.674 56.478 104.677 56.6772 104.677 56.8865C104.684 57.0891 104.684 57.2917 104.677 57.4942C104.677 57.6968 104.674 57.8892 104.667 58.0715C104.66 58.4429 104.606 58.794 104.505 59.1249C104.41 59.4557 104.262 59.7494 104.059 60.006C103.863 60.2626 103.603 60.4651 103.279 60.6137C102.962 60.7555 102.567 60.8264 102.094 60.8264ZM102.094 59.9655C102.621 59.9655 103.009 59.7933 103.259 59.449C103.516 59.0978 103.647 58.6218 103.654 58.0209C103.667 57.8251 103.674 57.636 103.674 57.4537C103.674 57.2647 103.674 57.079 103.674 56.8967C103.674 56.7076 103.667 56.5219 103.654 56.3396C103.647 55.7522 103.516 55.2829 103.259 54.9318C103.009 54.574 102.621 54.395 102.094 54.395C101.574 54.395 101.186 54.574 100.93 54.9318C100.68 55.2829 100.548 55.7522 100.535 56.3396C100.535 56.5219 100.531 56.7076 100.524 56.8967C100.524 57.079 100.524 57.2647 100.524 57.4537C100.531 57.636 100.535 57.8251 100.535 58.0209C100.548 58.6218 100.683 59.0978 100.94 59.449C101.196 59.7933 101.581 59.9655 102.094 59.9655ZM109.374 60.7251C109.306 60.7251 109.249 60.7048 109.202 60.6643C109.161 60.6171 109.141 60.5597 109.141 60.4922V59.0337H105.86C105.792 59.0337 105.735 59.0134 105.687 58.9729C105.647 58.9257 105.627 58.8683 105.627 58.8008V58.3956C105.627 58.3686 105.633 58.3281 105.647 58.2741C105.667 58.2133 105.697 58.1526 105.738 58.0918L108.776 53.8076C108.857 53.6928 108.982 53.6354 109.151 53.6354H109.88C109.948 53.6354 110.002 53.659 110.042 53.7063C110.09 53.7468 110.113 53.8008 110.113 53.8684V58.1526H111.025C111.099 58.1526 111.157 58.1762 111.197 58.2235C111.244 58.264 111.268 58.318 111.268 58.3855V58.8008C111.268 58.8683 111.244 58.9257 111.197 58.9729C111.157 59.0134 111.103 59.0337 111.035 59.0337H110.113V60.4922C110.113 60.5597 110.09 60.6171 110.042 60.6643C110.002 60.7048 109.948 60.7251 109.88 60.7251H109.374ZM106.71 58.1728H109.151V54.6989L106.71 58.1728ZM112.049 61.5759C111.995 61.5759 111.948 61.5556 111.907 61.5151C111.867 61.4746 111.847 61.4273 111.847 61.3733C111.847 61.3395 111.857 61.299 111.877 61.2518L115.341 52.9467C115.361 52.9062 115.388 52.8657 115.422 52.8252C115.462 52.7846 115.523 52.7644 115.604 52.7644H115.999C116.053 52.7644 116.101 52.7846 116.141 52.8252C116.182 52.8657 116.202 52.9129 116.202 52.967C116.202 52.994 116.195 53.0345 116.182 53.0885L112.708 61.3936C112.694 61.4273 112.664 61.4645 112.616 61.505C112.576 61.5522 112.519 61.5759 112.444 61.5759H112.049ZM117.05 60.7251C116.983 60.7251 116.925 60.7048 116.878 60.6643C116.838 60.6171 116.817 60.5597 116.817 60.4922V60.1681C116.817 60.1073 116.834 60.0398 116.868 59.9655C116.902 59.8912 116.969 59.8102 117.071 59.7224L119.218 57.5753C119.562 57.2849 119.832 57.0385 120.028 56.8359C120.23 56.6266 120.372 56.4274 120.453 56.2383C120.541 56.0493 120.585 55.8535 120.585 55.6509C120.585 55.266 120.477 54.9622 120.261 54.7394C120.045 54.5098 119.724 54.395 119.299 54.395C119.029 54.395 118.796 54.4524 118.6 54.5672C118.404 54.6752 118.249 54.8272 118.134 55.023C118.026 55.212 117.955 55.4281 117.921 55.6712C117.908 55.7589 117.871 55.8197 117.81 55.8535C117.756 55.8872 117.705 55.9041 117.658 55.9041H117.131C117.071 55.9041 117.02 55.8872 116.979 55.8535C116.939 55.813 116.919 55.7657 116.919 55.7117C116.925 55.4551 116.979 55.1985 117.081 54.9419C117.182 54.6786 117.33 54.4423 117.526 54.233C117.729 54.0237 117.975 53.8549 118.266 53.7266C118.563 53.5915 118.907 53.524 119.299 53.524C119.832 53.524 120.268 53.6219 120.605 53.8177C120.95 54.0068 121.203 54.26 121.365 54.5773C121.527 54.8947 121.608 55.2424 121.608 55.6205C121.608 55.9176 121.557 56.1911 121.456 56.4409C121.355 56.684 121.206 56.9237 121.01 57.16C120.821 57.3896 120.585 57.6259 120.301 57.869L118.357 59.844H121.517C121.591 59.844 121.648 59.8642 121.689 59.9047C121.736 59.9452 121.76 60.0026 121.76 60.0769V60.4922C121.76 60.5597 121.736 60.6171 121.689 60.6643C121.648 60.7048 121.591 60.7251 121.517 60.7251H117.05ZM125.476 60.8264C125.01 60.8264 124.615 60.7555 124.291 60.6137C123.974 60.4651 123.714 60.2626 123.511 60.006C123.309 59.7494 123.16 59.4557 123.065 59.1249C122.978 58.794 122.927 58.4429 122.914 58.0715C122.907 57.8892 122.9 57.6968 122.893 57.4942C122.893 57.2917 122.893 57.0891 122.893 56.8865C122.9 56.6772 122.907 56.478 122.914 56.289C122.92 55.9176 122.971 55.5665 123.065 55.2357C123.167 54.898 123.315 54.6043 123.511 54.3545C123.714 54.0979 123.977 53.8987 124.301 53.7569C124.625 53.6084 125.017 53.5341 125.476 53.5341C125.942 53.5341 126.333 53.6084 126.651 53.7569C126.975 53.8987 127.238 54.0979 127.441 54.3545C127.643 54.6043 127.792 54.898 127.886 55.2357C127.988 55.5665 128.042 55.9176 128.049 56.289C128.055 56.478 128.059 56.6772 128.059 56.8865C128.065 57.0891 128.065 57.2917 128.059 57.4942C128.059 57.6968 128.055 57.8892 128.049 58.0715C128.042 58.4429 127.988 58.794 127.886 59.1249C127.792 59.4557 127.643 59.7494 127.441 60.006C127.245 60.2626 126.985 60.4651 126.661 60.6137C126.344 60.7555 125.949 60.8264 125.476 60.8264ZM125.476 59.9655C126.003 59.9655 126.391 59.7933 126.641 59.449C126.897 59.0978 127.029 58.6218 127.036 58.0209C127.049 57.8251 127.056 57.636 127.056 57.4537C127.056 57.2647 127.056 57.079 127.056 56.8967C127.056 56.7076 127.049 56.5219 127.036 56.3396C127.029 55.7522 126.897 55.2829 126.641 54.9318C126.391 54.574 126.003 54.395 125.476 54.395C124.956 54.395 124.568 54.574 124.311 54.9318C124.061 55.2829 123.93 55.7522 123.916 56.3396C123.916 56.5219 123.913 56.7076 123.906 56.8967C123.906 57.079 123.906 57.2647 123.906 57.4537C123.913 57.636 123.916 57.8251 123.916 58.0209C123.93 58.6218 124.065 59.0978 124.321 59.449C124.578 59.7933 124.963 59.9655 125.476 59.9655ZM129.424 60.7251C129.356 60.7251 129.299 60.7048 129.251 60.6643C129.211 60.6171 129.191 60.5597 129.191 60.4922V60.1681C129.191 60.1073 129.208 60.0398 129.241 59.9655C129.275 59.8912 129.343 59.8102 129.444 59.7224L131.591 57.5753C131.935 57.2849 132.205 57.0385 132.401 56.8359C132.604 56.6266 132.746 56.4274 132.827 56.2383C132.914 56.0493 132.958 55.8535 132.958 55.6509C132.958 55.266 132.85 54.9622 132.634 54.7394C132.418 54.5098 132.097 54.395 131.672 54.395C131.402 54.395 131.169 54.4524 130.973 54.5672C130.777 54.6752 130.622 54.8272 130.507 55.023C130.399 55.212 130.328 55.4281 130.295 55.6712C130.281 55.7589 130.244 55.8197 130.183 55.8535C130.129 55.8872 130.079 55.9041 130.031 55.9041H129.505C129.444 55.9041 129.393 55.8872 129.353 55.8535C129.312 55.813 129.292 55.7657 129.292 55.7117C129.299 55.4551 129.353 55.1985 129.454 54.9419C129.555 54.6786 129.704 54.4423 129.9 54.233C130.102 54.0237 130.349 53.8549 130.639 53.7266C130.936 53.5915 131.28 53.524 131.672 53.524C132.205 53.524 132.641 53.6219 132.979 53.8177C133.323 54.0068 133.576 54.26 133.738 54.5773C133.9 54.8947 133.981 55.2424 133.981 55.6205C133.981 55.9176 133.931 56.1911 133.829 56.4409C133.728 56.684 133.579 56.9237 133.384 57.16C133.195 57.3896 132.958 57.6259 132.675 57.869L130.73 59.844H133.89C133.964 59.844 134.022 59.8642 134.062 59.9047C134.11 59.9452 134.133 60.0026 134.133 60.0769V60.4922C134.133 60.5597 134.11 60.6171 134.062 60.6643C134.022 60.7048 133.964 60.7251 133.89 60.7251H129.424ZM137.434 60.7251C137.367 60.7251 137.309 60.7048 137.262 60.6643C137.221 60.6171 137.201 60.5597 137.201 60.4922V54.8204L135.52 56.1168C135.466 56.1573 135.408 56.1742 135.348 56.1674C135.287 56.1607 135.236 56.1303 135.196 56.0763L134.932 55.7421C134.892 55.6813 134.875 55.6205 134.882 55.5598C134.895 55.499 134.929 55.4483 134.983 55.4078L137.191 53.7063C137.238 53.6725 137.282 53.6523 137.323 53.6455C137.363 53.6388 137.407 53.6354 137.454 53.6354H137.971C138.038 53.6354 138.092 53.659 138.133 53.7063C138.173 53.7468 138.194 53.8008 138.194 53.8684V60.4922C138.194 60.5597 138.173 60.6171 138.133 60.6643C138.092 60.7048 138.038 60.7251 137.971 60.7251H137.434Z" fill="black"/>
<g clip-path="url(#clip0_1225_1979)">
<rect x="131.666" y="10.8516" width="50.6406" height="14.4687" rx="7.23437" fill="#FF9533"/>
<path d="M139.291 21.8516C139.223 21.8516 139.166 21.8313 139.119 21.7908C139.078 21.7435 139.058 21.6861 139.058 21.6186V15.0049C139.058 14.9307 139.078 14.8733 139.119 14.8328C139.166 14.7855 139.223 14.7619 139.291 14.7619H139.797C139.878 14.7619 139.939 14.7821 139.98 14.8226C140.02 14.8632 140.044 14.8969 140.05 14.9239L142.198 19.0157L144.355 14.9239C144.368 14.8969 144.392 14.8632 144.426 14.8226C144.466 14.7821 144.527 14.7619 144.608 14.7619H145.104C145.179 14.7619 145.236 14.7855 145.277 14.8328C145.324 14.8733 145.347 14.9307 145.347 15.0049V21.6186C145.347 21.6861 145.324 21.7435 145.277 21.7908C145.236 21.8313 145.179 21.8516 145.104 21.8516H144.608C144.541 21.8516 144.483 21.8313 144.436 21.7908C144.395 21.7435 144.375 21.6861 144.375 21.6186V16.6356L142.684 19.9373C142.657 20.0049 142.616 20.0589 142.562 20.0994C142.508 20.1332 142.441 20.15 142.36 20.15H142.046C141.958 20.15 141.887 20.1332 141.833 20.0994C141.786 20.0589 141.745 20.0049 141.711 19.9373L140.02 16.6356V21.6186C140.02 21.6861 139.996 21.7435 139.949 21.7908C139.909 21.8313 139.855 21.8516 139.787 21.8516H139.291ZM149.064 21.9528C148.368 21.9528 147.815 21.7402 147.403 21.3148C146.991 20.8826 146.765 20.2952 146.724 19.5525C146.718 19.4647 146.714 19.3533 146.714 19.2182C146.714 19.0765 146.718 18.9617 146.724 18.8739C146.751 18.3945 146.863 17.9759 147.059 17.618C147.254 17.2534 147.521 16.9732 147.859 16.7774C148.203 16.5816 148.605 16.4837 149.064 16.4837C149.577 16.4837 150.006 16.5917 150.35 16.8078C150.701 17.0238 150.968 17.331 151.15 17.7294C151.333 18.1278 151.424 18.5937 151.424 19.1271V19.2993C151.424 19.3735 151.4 19.4309 151.353 19.4715C151.312 19.512 151.258 19.5322 151.191 19.5322H147.687C147.687 19.539 147.687 19.5525 147.687 19.5727C147.687 19.593 147.687 19.6099 147.687 19.6234C147.7 19.9002 147.761 20.1602 147.869 20.4032C147.977 20.6396 148.132 20.832 148.335 20.9805C148.537 21.1291 148.78 21.2034 149.064 21.2034C149.307 21.2034 149.51 21.1662 149.672 21.092C149.834 21.0177 149.965 20.9367 150.067 20.8489C150.168 20.7543 150.235 20.6835 150.269 20.6362C150.33 20.5484 150.377 20.4978 150.411 20.4843C150.445 20.464 150.499 20.4539 150.573 20.4539H151.059C151.127 20.4539 151.181 20.4741 151.221 20.5147C151.268 20.5484 151.289 20.5991 151.282 20.6666C151.275 20.7679 151.221 20.8928 151.12 21.0413C151.019 21.1831 150.873 21.3249 150.684 21.4667C150.495 21.6085 150.266 21.7266 149.996 21.8212C149.726 21.909 149.415 21.9528 149.064 21.9528ZM147.687 18.8334H150.462V18.803C150.462 18.4992 150.404 18.2291 150.289 17.9927C150.181 17.7564 150.023 17.5707 149.813 17.4357C149.604 17.2939 149.354 17.223 149.064 17.223C148.774 17.223 148.524 17.2939 148.314 17.4357C148.112 17.5707 147.957 17.7564 147.849 17.9927C147.741 18.2291 147.687 18.4992 147.687 18.803V18.8334ZM154.559 21.9528C154.188 21.9528 153.867 21.8887 153.597 21.7604C153.327 21.6254 153.104 21.4464 152.929 21.2236C152.76 20.994 152.631 20.7341 152.544 20.4438C152.463 20.1534 152.415 19.8462 152.402 19.5221C152.395 19.4141 152.392 19.3128 152.392 19.2182C152.392 19.1237 152.395 19.0224 152.402 18.9144C152.415 18.5971 152.463 18.2932 152.544 18.0029C152.631 17.7125 152.76 17.4526 152.929 17.223C153.104 16.9934 153.327 16.8145 153.597 16.6862C153.867 16.5512 154.188 16.4837 154.559 16.4837C154.958 16.4837 155.288 16.5546 155.552 16.6963C155.815 16.8381 156.031 17.0137 156.2 17.223V14.8935C156.2 14.826 156.22 14.772 156.261 14.7315C156.308 14.6842 156.365 14.6606 156.433 14.6606H156.919C156.987 14.6606 157.041 14.6842 157.081 14.7315C157.128 14.772 157.152 14.826 157.152 14.8935V21.6186C157.152 21.6861 157.128 21.7435 157.081 21.7908C157.041 21.8313 156.987 21.8516 156.919 21.8516H156.463C156.389 21.8516 156.332 21.8313 156.291 21.7908C156.251 21.7435 156.23 21.6861 156.23 21.6186V21.1932C156.061 21.4093 155.842 21.5916 155.572 21.7402C155.302 21.8819 154.964 21.9528 154.559 21.9528ZM154.772 21.1325C155.109 21.1325 155.38 21.0548 155.582 20.8995C155.785 20.7442 155.937 20.5484 156.038 20.3121C156.139 20.069 156.193 19.8226 156.2 19.5727C156.207 19.4647 156.21 19.3364 156.21 19.1879C156.21 19.0326 156.207 18.9009 156.2 18.7929C156.193 18.5565 156.136 18.3236 156.028 18.094C155.926 17.8645 155.771 17.6754 155.562 17.5269C155.359 17.3783 155.096 17.304 154.772 17.304C154.427 17.304 154.154 17.3817 153.951 17.537C153.749 17.6855 153.604 17.8847 153.516 18.1345C153.428 18.3776 153.378 18.6409 153.364 18.9245C153.357 19.1203 153.357 19.3162 153.364 19.512C153.378 19.7956 153.428 20.0623 153.516 20.3121C153.604 20.5552 153.749 20.7543 153.951 20.9096C154.154 21.0582 154.427 21.1325 154.772 21.1325ZM158.891 21.8516C158.824 21.8516 158.766 21.8313 158.719 21.7908C158.679 21.7435 158.658 21.6861 158.658 21.6186V16.8179C158.658 16.7504 158.679 16.6963 158.719 16.6558C158.766 16.6086 158.824 16.5849 158.891 16.5849H159.377C159.445 16.5849 159.499 16.6086 159.539 16.6558C159.58 16.6963 159.6 16.7504 159.6 16.8179V21.6186C159.6 21.6861 159.58 21.7435 159.539 21.7908C159.499 21.8313 159.445 21.8516 159.377 21.8516H158.891ZM158.81 15.6025C158.743 15.6025 158.685 15.5823 158.638 15.5417C158.598 15.4945 158.577 15.4371 158.577 15.3696V14.8226C158.577 14.7551 158.598 14.7011 158.638 14.6606C158.685 14.6133 158.743 14.5897 158.81 14.5897H159.448C159.516 14.5897 159.57 14.6133 159.61 14.6606C159.658 14.7011 159.681 14.7551 159.681 14.8226V15.3696C159.681 15.4371 159.658 15.4945 159.61 15.5417C159.57 15.5823 159.516 15.6025 159.448 15.6025H158.81ZM163.076 21.9528C162.644 21.9528 162.276 21.8583 161.972 21.6693C161.675 21.4734 161.449 21.2034 161.293 20.859C161.138 20.5147 161.061 20.1197 161.061 19.674V16.8179C161.061 16.7504 161.081 16.6963 161.121 16.6558C161.169 16.6086 161.226 16.5849 161.293 16.5849H161.8C161.867 16.5849 161.921 16.6086 161.962 16.6558C162.009 16.6963 162.033 16.7504 162.033 16.8179V19.6234C162.033 20.6294 162.472 21.1325 163.349 21.1325C163.768 21.1325 164.102 21.0008 164.352 20.7375C164.609 20.4674 164.737 20.096 164.737 19.6234V16.8179C164.737 16.7504 164.757 16.6963 164.798 16.6558C164.845 16.6086 164.902 16.5849 164.97 16.5849H165.466C165.541 16.5849 165.598 16.6086 165.638 16.6558C165.679 16.6963 165.699 16.7504 165.699 16.8179V21.6186C165.699 21.6861 165.679 21.7435 165.638 21.7908C165.598 21.8313 165.541 21.8516 165.466 21.8516H165C164.933 21.8516 164.875 21.8313 164.828 21.7908C164.788 21.7435 164.767 21.6861 164.767 21.6186V21.173C164.585 21.4093 164.362 21.5984 164.099 21.7402C163.842 21.8819 163.501 21.9528 163.076 21.9528ZM167.437 21.8516C167.369 21.8516 167.312 21.8313 167.265 21.7908C167.224 21.7435 167.204 21.6861 167.204 21.6186V16.8179C167.204 16.7504 167.224 16.6963 167.265 16.6558C167.312 16.6086 167.369 16.5849 167.437 16.5849H167.893C167.96 16.5849 168.014 16.6086 168.055 16.6558C168.102 16.6963 168.126 16.7504 168.126 16.8179V17.1724C168.281 16.9631 168.477 16.7976 168.713 16.6761C168.949 16.5478 169.233 16.4837 169.564 16.4837C170.327 16.4769 170.867 16.7875 171.184 17.4154C171.34 17.1319 171.566 16.9057 171.863 16.7369C172.16 16.5681 172.498 16.4837 172.876 16.4837C173.227 16.4837 173.544 16.5647 173.828 16.7267C174.118 16.8888 174.344 17.1352 174.506 17.4661C174.675 17.7902 174.759 18.1987 174.759 18.6916V21.6186C174.759 21.6861 174.736 21.7435 174.689 21.7908C174.648 21.8313 174.594 21.8516 174.527 21.8516H174.05C173.983 21.8516 173.926 21.8313 173.878 21.7908C173.838 21.7435 173.818 21.6861 173.818 21.6186V18.7827C173.818 18.4046 173.764 18.1075 173.655 17.8915C173.547 17.6754 173.402 17.5235 173.22 17.4357C173.038 17.3479 172.838 17.304 172.622 17.304C172.447 17.304 172.268 17.3479 172.086 17.4357C171.903 17.5235 171.751 17.6754 171.63 17.8915C171.515 18.1075 171.458 18.4046 171.458 18.7827V21.6186C171.458 21.6861 171.434 21.7435 171.387 21.7908C171.346 21.8313 171.292 21.8516 171.225 21.8516H170.749C170.681 21.8516 170.624 21.8313 170.577 21.7908C170.536 21.7435 170.516 21.6861 170.516 21.6186V18.7827C170.516 18.4046 170.458 18.1075 170.344 17.8915C170.229 17.6754 170.08 17.5235 169.898 17.4357C169.716 17.3479 169.523 17.304 169.321 17.304C169.145 17.304 168.966 17.3479 168.784 17.4357C168.602 17.5235 168.45 17.6754 168.328 17.8915C168.213 18.1075 168.156 18.4012 168.156 18.7726V21.6186C168.156 21.6861 168.132 21.7435 168.085 21.7908C168.045 21.8313 167.99 21.8516 167.923 21.8516H167.437Z" fill="white"/>
</g>
<defs>
<clipPath id="clip0_1225_1979">
<rect x="131.666" y="10.8516" width="50.6406" height="14.4687" rx="7.23437" fill="white"/>
</clipPath>
</defs>
</svg>
