<svg width="21" height="21" viewBox="0 0 21 21" fill="none" xmlns="http://www.w3.org/2000/svg">
<g clip-path="url(#clip0_1226_3229)">
<path d="M13.5804 18.4041V16.7066C13.5804 15.8062 13.2227 14.9426 12.586 14.3059C11.9493 13.6692 11.0857 13.3115 10.1853 13.3115H4.24394C3.34351 13.3115 2.47997 13.6692 1.84327 14.3059C1.20657 14.9426 0.848877 15.8062 0.848877 16.7066V18.4041" stroke="white" stroke-width="1.69753" stroke-linecap="round" stroke-linejoin="round"/>
<path d="M7.2144 9.91674C9.08944 9.91674 10.6095 8.39672 10.6095 6.52168C10.6095 4.64664 9.08944 3.12662 7.2144 3.12662C5.33936 3.12662 3.81934 4.64664 3.81934 6.52168C3.81934 8.39672 5.33936 9.91674 7.2144 9.91674Z" stroke="white" stroke-width="1.69753" stroke-linecap="round" stroke-linejoin="round"/>
<path d="M14.429 9.91671L16.1265 11.6142L19.5215 8.21918" stroke="white" stroke-width="1.69753" stroke-linecap="round" stroke-linejoin="round"/>
</g>
<defs>
<clipPath id="clip0_1226_3229">
<rect width="20.3704" height="20.3704" fill="white" transform="translate(0 0.580322)"/>
</clipPath>
</defs>
</svg>
